<svg width="40" height="40" viewBox="0 0 50 50" fill="none" xmlns="http://www.w3.org/2000/svg">
<path d="M22.1937 0.69577C10.6703 1.95831 1.40154 11.3011 0.149006 22.664C-1.10353 34.5318 5.66017 45.1372 15.931 49.1773C16.6825 49.4298 17.434 48.9248 17.434 47.9148V43.8746C17.434 43.8746 16.432 44.1271 15.1795 44.1271C11.6724 44.1271 10.1693 41.097 9.9188 39.3295C9.66829 38.3195 9.16728 37.5619 8.41575 36.8044C7.66423 36.5519 7.41372 36.5519 7.41372 36.2994C7.41372 35.7944 8.16525 35.7944 8.41575 35.7944C9.9188 35.7944 11.1713 37.5619 11.6724 38.3195C12.9249 40.3395 14.4279 40.8445 15.1795 40.8445C16.1815 40.8445 16.933 40.592 17.434 40.3395C17.6845 38.572 18.4361 36.8044 19.9391 35.7944C14.1774 34.5318 9.9188 31.2492 9.9188 25.6941C9.9188 22.9165 11.1713 20.1389 12.9249 18.1188C12.6744 17.6138 12.4239 16.3513 12.4239 14.5837C12.4239 13.5737 12.4239 12.3111 12.9249 11.3011C12.9249 10.7961 13.4259 10.5436 13.6764 10.5436H13.9269C15.1795 10.7961 17.6845 11.5536 19.9391 13.8262C21.4421 13.3212 23.1957 13.0687 24.9492 13.0687C26.7028 13.0687 28.4564 13.3212 29.9594 13.8262C32.214 11.5536 34.9695 10.7961 36.2221 10.5436H36.4726C36.9736 10.5436 37.2241 10.7961 37.4746 11.3011C37.4746 12.3111 37.4746 13.5737 37.4746 14.5837C37.4746 16.6038 37.2241 17.6138 36.9736 18.1188C38.7272 20.1389 39.9797 22.664 39.9797 25.6941C39.9797 31.2492 35.7211 34.5318 29.9594 35.7944C31.4624 37.0569 32.4645 39.3295 32.4645 41.6021V48.1673C32.4645 48.9248 33.216 49.6823 34.218 49.4298C43.4868 45.6422 50 36.5519 50 25.9466C50 10.7961 37.2241 -1.07179 22.1937 0.69577Z" fill="white"/>
</svg>
